<?xml version="1.0" encoding="UTF-8" ?>
<svg version="1.1" width="160" height="140" xmlns="http://www.w3.org/2000/svg" shape-rendering="crispEdges">
<rect x="75" y="0" width="5" height="5" fill="#C2025F" />
<rect x="70" y="5" width="5" height="5" fill="#9D0058" />
<rect x="75" y="5" width="5" height="5" fill="#C2025F" />
<rect x="80" y="5" width="5" height="5" fill="#C2025F" />
<rect x="145" y="5" width="5" height="5" fill="#C2025F" />
<rect x="150" y="5" width="5" height="5" fill="#C2025F" />
<rect x="70" y="10" width="5" height="5" fill="#9D0058" />
<rect x="75" y="10" width="5" height="5" fill="#C2025F" />
<rect x="80" y="10" width="5" height="5" fill="#C2025F" />
<rect x="145" y="10" width="5" height="5" fill="#C2025F" />
<rect x="150" y="10" width="5" height="5" fill="#C2025F" />
<rect x="155" y="10" width="5" height="5" fill="#9D0058" />
<rect x="70" y="15" width="5" height="5" fill="#9D0058" />
<rect x="75" y="15" width="5" height="5" fill="#9D0058" />
<rect x="80" y="15" width="5" height="5" fill="#C2025F" />
<rect x="85" y="15" width="5" height="5" fill="#C2025F" />
<rect x="140" y="15" width="5" height="5" fill="#C2025F" />
<rect x="145" y="15" width="5" height="5" fill="#C2025F" />
<rect x="150" y="15" width="5" height="5" fill="#9D0058" />
<rect x="155" y="15" width="5" height="5" fill="#9D0058" />
<rect x="75" y="20" width="5" height="5" fill="#9D0058" />
<rect x="80" y="20" width="5" height="5" fill="#C2025F" />
<rect x="85" y="20" width="5" height="5" fill="#C2025F" />
<rect x="140" y="20" width="5" height="5" fill="#C2025F" />
<rect x="145" y="20" width="5" height="5" fill="#C2025F" />
<rect x="150" y="20" width="5" height="5" fill="#9D0058" />
<rect x="55" y="25" width="5" height="5" fill="#9D0058" />
<rect x="60" y="25" width="5" height="5" fill="#C2025F" />
<rect x="75" y="25" width="5" height="5" fill="#9D0058" />
<rect x="80" y="25" width="5" height="5" fill="#9D0058" />
<rect x="85" y="25" width="5" height="5" fill="#C2025F" />
<rect x="90" y="25" width="5" height="5" fill="#C2025F" />
<rect x="95" y="25" width="5" height="5" fill="#FDE2C4" />
<rect x="100" y="25" width="5" height="5" fill="#FDE2C4" />
<rect x="105" y="25" width="5" height="5" fill="#FDE2C4" />
<rect x="110" y="25" width="5" height="5" fill="#FDE2C4" />
<rect x="115" y="25" width="5" height="5" fill="#FDE2C4" />
<rect x="120" y="25" width="5" height="5" fill="#FDE2C4" />
<rect x="125" y="25" width="5" height="5" fill="#FDE2C4" />
<rect x="130" y="25" width="5" height="5" fill="#FDE2C4" />
<rect x="135" y="25" width="5" height="5" fill="#C2025F" />
<rect x="140" y="25" width="5" height="5" fill="#C2025F" />
<rect x="145" y="25" width="5" height="5" fill="#9D0058" />
<rect x="150" y="25" width="5" height="5" fill="#9D0058" />
<rect x="55" y="30" width="5" height="5" fill="#9D0058" />
<rect x="60" y="30" width="5" height="5" fill="#C2025F" />
<rect x="65" y="30" width="5" height="5" fill="#C2025F" />
<rect x="80" y="30" width="5" height="5" fill="#9D0058" />
<rect x="85" y="30" width="5" height="5" fill="#C2025F" />
<rect x="90" y="30" width="5" height="5" fill="#FDE2C4" />
<rect x="95" y="30" width="5" height="5" fill="#FDE2C4" />
<rect x="100" y="30" width="5" height="5" fill="#FDE2C4" />
<rect x="105" y="30" width="5" height="5" fill="#FDE2C4" />
<rect x="110" y="30" width="5" height="5" fill="#FDE2C4" />
<rect x="115" y="30" width="5" height="5" fill="#FDE2C4" />
<rect x="120" y="30" width="5" height="5" fill="#FDE2C4" />
<rect x="125" y="30" width="5" height="5" fill="#FDE2C4" />
<rect x="130" y="30" width="5" height="5" fill="#FDE2C4" />
<rect x="135" y="30" width="5" height="5" fill="#FDE2C4" />
<rect x="140" y="30" width="5" height="5" fill="#C2025F" />
<rect x="145" y="30" width="5" height="5" fill="#9D0058" />
<rect x="155" y="30" width="5" height="5" fill="#C2025F" />
<rect x="55" y="35" width="5" height="5" fill="#9D0058" />
<rect x="60" y="35" width="5" height="5" fill="#9D0058" />
<rect x="65" y="35" width="5" height="5" fill="#C2025F" />
<rect x="70" y="35" width="5" height="5" fill="#C2025F" />
<rect x="80" y="35" width="5" height="5" fill="#FBD7B3" />
<rect x="85" y="35" width="5" height="5" fill="#FBD7B3" />
<rect x="90" y="35" width="5" height="5" fill="#FDE2C4" />
<rect x="95" y="35" width="5" height="5" fill="#FDE2C4" />
<rect x="100" y="35" width="5" height="5" fill="#FDE2C4" />
<rect x="105" y="35" width="5" height="5" fill="#FDE2C4" />
<rect x="110" y="35" width="5" height="5" fill="#FDE2C4" />
<rect x="115" y="35" width="5" height="5" fill="#FDE2C4" />
<rect x="120" y="35" width="5" height="5" fill="#FDE2C4" />
<rect x="125" y="35" width="5" height="5" fill="#FDE2C4" />
<rect x="130" y="35" width="5" height="5" fill="#FDE2C4" />
<rect x="135" y="35" width="5" height="5" fill="#FDE2C4" />
<rect x="140" y="35" width="5" height="5" fill="#FDE2C4" />
<rect x="145" y="35" width="5" height="5" fill="#FDE2C4" />
<rect x="155" y="35" width="5" height="5" fill="#C2025F" />
<rect x="55" y="40" width="5" height="5" fill="#9D0058" />
<rect x="60" y="40" width="5" height="5" fill="#9D0058" />
<rect x="65" y="40" width="5" height="5" fill="#C2025F" />
<rect x="70" y="40" width="5" height="5" fill="#C2025F" />
<rect x="75" y="40" width="5" height="5" fill="#C2025F" />
<rect x="80" y="40" width="5" height="5" fill="#FBD7B3" />
<rect x="85" y="40" width="5" height="5" fill="#FDE2C4" />
<rect x="90" y="40" width="5" height="5" fill="#FDE2C4" />
<rect x="95" y="40" width="5" height="5" fill="#FDE2C4" />
<rect x="100" y="40" width="5" height="5" fill="#FDE2C4" />
<rect x="105" y="40" width="5" height="5" fill="#FDE2C4" />
<rect x="110" y="40" width="5" height="5" fill="#FBDFC2" />
<rect x="115" y="40" width="5" height="5" fill="#FDE2C4" />
<rect x="120" y="40" width="5" height="5" fill="#FDE2C4" />
<rect x="125" y="40" width="5" height="5" fill="#FDE2C4" />
<rect x="130" y="40" width="5" height="5" fill="#FDE0C3" />
<rect x="135" y="40" width="5" height="5" fill="#FDE2C4" />
<rect x="140" y="40" width="5" height="5" fill="#FDE2C4" />
<rect x="145" y="40" width="5" height="5" fill="#FDE2C4" />
<rect x="150" y="40" width="5" height="5" fill="#C2025F" />
<rect x="155" y="40" width="5" height="5" fill="#C2025F" />
<rect x="60" y="45" width="5" height="5" fill="#9D0058" />
<rect x="65" y="45" width="5" height="5" fill="#9D0058" />
<rect x="70" y="45" width="5" height="5" fill="#9D0058" />
<rect x="75" y="45" width="5" height="5" fill="#9D0058" />
<rect x="80" y="45" width="5" height="5" fill="#FBD7B3" />
<rect x="85" y="45" width="5" height="5" fill="#FDE2C4" />
<rect x="90" y="45" width="5" height="5" fill="#FAE1C5" />
<rect x="95" y="45" width="5" height="5" fill="#FBE0C1" />
<rect x="100" y="45" width="5" height="5" fill="#FFFFFF" />
<rect x="105" y="45" width="5" height="5" fill="#03010A" />
<rect x="110" y="45" width="5" height="5" fill="#FCDFC0" />
<rect x="115" y="45" width="5" height="5" fill="#FDE2C4" />
<rect x="120" y="45" width="5" height="5" fill="#FDE2C4" />
<rect x="125" y="45" width="5" height="5" fill="#FFFFFF" />
<rect x="130" y="45" width="5" height="5" fill="#000009" />
<rect x="135" y="45" width="5" height="5" fill="#FDE2C4" />
<rect x="140" y="45" width="5" height="5" fill="#FDE2C4" />
<rect x="145" y="45" width="5" height="5" fill="#FAE1C5" />
<rect x="150" y="45" width="5" height="5" fill="#C2025F" />
<rect x="155" y="45" width="5" height="5" fill="#9D0058" />
<rect x="70" y="50" width="5" height="5" fill="#9D0058" />
<rect x="75" y="50" width="5" height="5" fill="#9D0058" />
<rect x="80" y="50" width="5" height="5" fill="#FBD7B3" />
<rect x="85" y="50" width="5" height="5" fill="#FDE2C4" />
<rect x="90" y="50" width="5" height="5" fill="#FDE2C4" />
<rect x="95" y="50" width="5" height="5" fill="#FAE2C1" />
<rect x="100" y="50" width="5" height="5" fill="#010207" />
<rect x="105" y="50" width="5" height="5" fill="#01020A" />
<rect x="110" y="50" width="5" height="5" fill="#FCDFC0" />
<rect x="115" y="50" width="5" height="5" fill="#FDE2C4" />
<rect x="120" y="50" width="5" height="5" fill="#FDE2C4" />
<rect x="125" y="50" width="5" height="5" fill="#000000" />
<rect x="130" y="50" width="5" height="5" fill="#000000" />
<rect x="135" y="50" width="5" height="5" fill="#FDE2C4" />
<rect x="140" y="50" width="5" height="5" fill="#FDE2C4" />
<rect x="145" y="50" width="5" height="5" fill="#FDE2C4" />
<rect x="150" y="50" width="5" height="5" fill="#9D0058" />
<rect x="155" y="50" width="5" height="5" fill="#9D0058" />
<rect x="40" y="55" width="5" height="5" fill="#3F0042" />
<rect x="45" y="55" width="5" height="5" fill="#3F0042" />
<rect x="50" y="55" width="5" height="5" fill="#3F0042" />
<rect x="55" y="55" width="5" height="5" fill="#C562B6" />
<rect x="60" y="55" width="5" height="5" fill="#C562B6" />
<rect x="65" y="55" width="5" height="5" fill="#FDE2C4" />
<rect x="70" y="55" width="5" height="5" fill="#FDE2C4" />
<rect x="75" y="55" width="5" height="5" fill="#FBD7B3" />
<rect x="80" y="55" width="5" height="5" fill="#FBD7B3" />
<rect x="85" y="55" width="5" height="5" fill="#F64181" />
<rect x="90" y="55" width="5" height="5" fill="#F0578C" />
<rect x="95" y="55" width="5" height="5" fill="#FBE2C6" />
<rect x="100" y="55" width="5" height="5" fill="#000004" />
<rect x="105" y="55" width="5" height="5" fill="#010009" />
<rect x="110" y="55" width="5" height="5" fill="#FDE0C1" />
<rect x="115" y="55" width="5" height="5" fill="#FDE2C4" />
<rect x="120" y="55" width="5" height="5" fill="#FDE2C4" />
<rect x="125" y="55" width="5" height="5" fill="#000000" />
<rect x="130" y="55" width="5" height="5" fill="#000000" />
<rect x="135" y="55" width="5" height="5" fill="#FDE2C4" />
<rect x="140" y="55" width="5" height="5" fill="#F64181" />
<rect x="145" y="55" width="5" height="5" fill="#F0578C" />
<rect x="150" y="55" width="5" height="5" fill="#FDE2C4" />
<rect x="30" y="60" width="5" height="5" fill="#3F0042" />
<rect x="35" y="60" width="5" height="5" fill="#3F0042" />
<rect x="40" y="60" width="5" height="5" fill="#C562B6" />
<rect x="45" y="60" width="5" height="5" fill="#C562B6" />
<rect x="50" y="60" width="5" height="5" fill="#C562B6" />
<rect x="55" y="60" width="5" height="5" fill="#FDE2C4" />
<rect x="60" y="60" width="5" height="5" fill="#FDE2C4" />
<rect x="65" y="60" width="5" height="5" fill="#FDE2C4" />
<rect x="70" y="60" width="5" height="5" fill="#FDE2C4" />
<rect x="75" y="60" width="5" height="5" fill="#FBD7B3" />
<rect x="80" y="60" width="5" height="5" fill="#FBD7B3" />
<rect x="85" y="60" width="5" height="5" fill="#F64181" />
<rect x="90" y="60" width="5" height="5" fill="#FE457A" />
<rect x="95" y="60" width="5" height="5" fill="#FCE4C5" />
<rect x="100" y="60" width="5" height="5" fill="#FDE2C4" />
<rect x="105" y="60" width="5" height="5" fill="#FDE2C4" />
<rect x="110" y="60" width="5" height="5" fill="#FDE2C4" />
<rect x="115" y="60" width="5" height="5" fill="#FDE2C4" />
<rect x="120" y="60" width="5" height="5" fill="#FDE2C4" />
<rect x="125" y="60" width="5" height="5" fill="#FBE3C2" />
<rect x="130" y="60" width="5" height="5" fill="#FDE2C4" />
<rect x="135" y="60" width="5" height="5" fill="#FDE2C4" />
<rect x="140" y="60" width="5" height="5" fill="#F64181" />
<rect x="145" y="60" width="5" height="5" fill="#FE457A" />
<rect x="150" y="60" width="5" height="5" fill="#FDE2C4" />
<rect x="155" y="60" width="5" height="5" fill="#C2025F" />
<rect x="20" y="65" width="5" height="5" fill="#3F0042" />
<rect x="25" y="65" width="5" height="5" fill="#3F0042" />
<rect x="30" y="65" width="5" height="5" fill="#C562B6" />
<rect x="35" y="65" width="5" height="5" fill="#C562B6" />
<rect x="40" y="65" width="5" height="5" fill="#FDE2C4" />
<rect x="45" y="65" width="5" height="5" fill="#FDE2C4" />
<rect x="50" y="65" width="5" height="5" fill="#FDE2C4" />
<rect x="55" y="65" width="5" height="5" fill="#9D0058" />
<rect x="60" y="65" width="5" height="5" fill="#9D0058" />
<rect x="65" y="65" width="5" height="5" fill="#C2025F" />
<rect x="70" y="65" width="5" height="5" fill="#C2025F" />
<rect x="75" y="65" width="5" height="5" fill="#C2025F" />
<rect x="80" y="65" width="5" height="5" fill="#FBD7B3" />
<rect x="85" y="65" width="5" height="5" fill="#FDE2C4" />
<rect x="90" y="65" width="5" height="5" fill="#FDE2C4" />
<rect x="95" y="65" width="5" height="5" fill="#FDE2C4" />
<rect x="100" y="65" width="5" height="5" fill="#FDE2C4" />
<rect x="105" y="65" width="5" height="5" fill="#FDE2C4" />
<rect x="110" y="65" width="5" height="5" fill="#FDE2C4" />
<rect x="115" y="65" width="5" height="5" fill="#FDE2C4" />
<rect x="120" y="65" width="5" height="5" fill="#FDE2C4" />
<rect x="125" y="65" width="5" height="5" fill="#FDE2C4" />
<rect x="130" y="65" width="5" height="5" fill="#FDE2C4" />
<rect x="135" y="65" width="5" height="5" fill="#FDE2C4" />
<rect x="140" y="65" width="5" height="5" fill="#FDE2C4" />
<rect x="145" y="65" width="5" height="5" fill="#FDE2C4" />
<rect x="150" y="65" width="5" height="5" fill="#C2025F" />
<rect x="155" y="65" width="5" height="5" fill="#9D0058" />
<rect x="15" y="70" width="5" height="5" fill="#3F0042" />
<rect x="20" y="70" width="5" height="5" fill="#3F0042" />
<rect x="25" y="70" width="5" height="5" fill="#C562B6" />
<rect x="30" y="70" width="5" height="5" fill="#C562B6" />
<rect x="35" y="70" width="5" height="5" fill="#FDE2C4" />
<rect x="40" y="70" width="5" height="5" fill="#FDE2C4" />
<rect x="45" y="70" width="5" height="5" fill="#FDE2C4" />
<rect x="50" y="70" width="5" height="5" fill="#FDE2C4" />
<rect x="55" y="70" width="5" height="5" fill="#FDE2C4" />
<rect x="60" y="70" width="5" height="5" fill="#9D0058" />
<rect x="65" y="70" width="5" height="5" fill="#9D0058" />
<rect x="70" y="70" width="5" height="5" fill="#9D0058" />
<rect x="75" y="70" width="5" height="5" fill="#C2025F" />
<rect x="80" y="70" width="5" height="5" fill="#FBD7B3" />
<rect x="85" y="70" width="5" height="5" fill="#FDE2C4" />
<rect x="90" y="70" width="5" height="5" fill="#FDE2C4" />
<rect x="95" y="70" width="5" height="5" fill="#FBDFC2" />
<rect x="100" y="70" width="5" height="5" fill="#FDE2C4" />
<rect x="105" y="70" width="5" height="5" fill="#000000" />
<rect x="110" y="70" width="5" height="5" fill="#FDE2C4" />
<rect x="115" y="70" width="5" height="5" fill="#FDE2C4" />
<rect x="120" y="70" width="5" height="5" fill="#FDE2C4" />
<rect x="125" y="70" width="5" height="5" fill="#000000" />
<rect x="130" y="70" width="5" height="5" fill="#FDE2C4" />
<rect x="135" y="70" width="5" height="5" fill="#FDE2C4" />
<rect x="140" y="70" width="5" height="5" fill="#FDE2C4" />
<rect x="145" y="70" width="5" height="5" fill="#FDE2C4" />
<rect x="150" y="70" width="5" height="5" fill="#9D0058" />
<rect x="155" y="70" width="5" height="5" fill="#9D0058" />
<rect x="10" y="75" width="5" height="5" fill="#3F0042" />
<rect x="15" y="75" width="5" height="5" fill="#3F0042" />
<rect x="20" y="75" width="5" height="5" fill="#C562B6" />
<rect x="25" y="75" width="5" height="5" fill="#C562B6" />
<rect x="30" y="75" width="5" height="5" fill="#FDE2C4" />
<rect x="35" y="75" width="5" height="5" fill="#FDE2C4" />
<rect x="40" y="75" width="5" height="5" fill="#FDE2C4" />
<rect x="45" y="75" width="5" height="5" fill="#FDE2C4" />
<rect x="50" y="75" width="5" height="5" fill="#FDE2C4" />
<rect x="55" y="75" width="5" height="5" fill="#FDE2C4" />
<rect x="60" y="75" width="5" height="5" fill="#FDE2C4" />
<rect x="65" y="75" width="5" height="5" fill="#9D0058" />
<rect x="70" y="75" width="5" height="5" fill="#9D0058" />
<rect x="75" y="75" width="5" height="5" fill="#9D0058" />
<rect x="80" y="75" width="5" height="5" fill="#FBD7B3" />
<rect x="85" y="75" width="5" height="5" fill="#FBD7B3" />
<rect x="90" y="75" width="5" height="5" fill="#FDE2C4" />
<rect x="95" y="75" width="5" height="5" fill="#FDE2C4" />
<rect x="100" y="75" width="5" height="5" fill="#FDE2C4" />
<rect x="105" y="75" width="5" height="5" fill="#FDE2C4" />
<rect x="110" y="75" width="5" height="5" fill="#000000" />
<rect x="115" y="75" width="5" height="5" fill="#000000" />
<rect x="120" y="75" width="5" height="5" fill="#000000" />
<rect x="125" y="75" width="5" height="5" fill="#FDE2C4" />
<rect x="130" y="75" width="5" height="5" fill="#FCE1C1" />
<rect x="135" y="75" width="5" height="5" fill="#FDE2C2" />
<rect x="140" y="75" width="5" height="5" fill="#FDE2C4" />
<rect x="145" y="75" width="5" height="5" fill="#FDE2C4" />
<rect x="150" y="75" width="5" height="5" fill="#9D0058" />
<rect x="155" y="75" width="5" height="5" fill="#9D0058" />
<rect x="0" y="80" width="5" height="5" fill="#3F0042" />
<rect x="5" y="80" width="5" height="5" fill="#3F0042" />
<rect x="10" y="80" width="5" height="5" fill="#3F0042" />
<rect x="15" y="80" width="5" height="5" fill="#C562B6" />
<rect x="20" y="80" width="5" height="5" fill="#C562B6" />
<rect x="25" y="80" width="5" height="5" fill="#FDE2C4" />
<rect x="30" y="80" width="5" height="5" fill="#FDE2C4" />
<rect x="35" y="80" width="5" height="5" fill="#FDE2C4" />
<rect x="40" y="80" width="5" height="5" fill="#FDE2C4" />
<rect x="45" y="80" width="5" height="5" fill="#FDE2C4" />
<rect x="50" y="80" width="5" height="5" fill="#FDE2C4" />
<rect x="55" y="80" width="5" height="5" fill="#FDE2C4" />
<rect x="60" y="80" width="5" height="5" fill="#FDE2C4" />
<rect x="65" y="80" width="5" height="5" fill="#FDE2C4" />
<rect x="70" y="80" width="5" height="5" fill="#FDE2C4" />
<rect x="75" y="80" width="5" height="5" fill="#FDE2C4" />
<rect x="80" y="80" width="5" height="5" fill="#FDE2C4" />
<rect x="85" y="80" width="5" height="5" fill="#FBD7B3" />
<rect x="90" y="80" width="5" height="5" fill="#FBD7B3" />
<rect x="95" y="80" width="5" height="5" fill="#FBD7B3" />
<rect x="100" y="80" width="5" height="5" fill="#FDE2C4" />
<rect x="105" y="80" width="5" height="5" fill="#FDE2C4" />
<rect x="110" y="80" width="5" height="5" fill="#FDE2C4" />
<rect x="115" y="80" width="5" height="5" fill="#FDE2C4" />
<rect x="120" y="80" width="5" height="5" fill="#FDE2C4" />
<rect x="125" y="80" width="5" height="5" fill="#FDE2C4" />
<rect x="130" y="80" width="5" height="5" fill="#FDE2C4" />
<rect x="135" y="80" width="5" height="5" fill="#FDE2C4" />
<rect x="140" y="80" width="5" height="5" fill="#FBD7B3" />
<rect x="145" y="80" width="5" height="5" fill="#FBD7B3" />
<rect x="0" y="85" width="5" height="5" fill="#3F0042" />
<rect x="5" y="85" width="5" height="5" fill="#3F0042" />
<rect x="10" y="85" width="5" height="5" fill="#C562B6" />
<rect x="15" y="85" width="5" height="5" fill="#C562B6" />
<rect x="20" y="85" width="5" height="5" fill="#FDE2C4" />
<rect x="25" y="85" width="5" height="5" fill="#FDE2C4" />
<rect x="30" y="85" width="5" height="5" fill="#FDE2C4" />
<rect x="35" y="85" width="5" height="5" fill="#FDE2C4" />
<rect x="40" y="85" width="5" height="5" fill="#FDE2C4" />
<rect x="45" y="85" width="5" height="5" fill="#FDE2C4" />
<rect x="50" y="85" width="5" height="5" fill="#FDE2C4" />
<rect x="55" y="85" width="5" height="5" fill="#FDE2C4" />
<rect x="60" y="85" width="5" height="5" fill="#FDE2C4" />
<rect x="65" y="85" width="5" height="5" fill="#FDE2C4" />
<rect x="70" y="85" width="5" height="5" fill="#FDE2C4" />
<rect x="75" y="85" width="5" height="5" fill="#FDE2C4" />
<rect x="80" y="85" width="5" height="5" fill="#FDE2C4" />
<rect x="85" y="85" width="5" height="5" fill="#FDE2C4" />
<rect x="90" y="85" width="5" height="5" fill="#FBD7B3" />
<rect x="95" y="85" width="5" height="5" fill="#FBD7B3" />
<rect x="100" y="85" width="5" height="5" fill="#FBD7B3" />
<rect x="105" y="85" width="5" height="5" fill="#FBD7B3" />
<rect x="110" y="85" width="5" height="5" fill="#FBD7B3" />
<rect x="115" y="85" width="5" height="5" fill="#FBD7B3" />
<rect x="120" y="85" width="5" height="5" fill="#FBD7B3" />
<rect x="125" y="85" width="5" height="5" fill="#FBD7B3" />
<rect x="130" y="85" width="5" height="5" fill="#FBD7B3" />
<rect x="135" y="85" width="5" height="5" fill="#FBD7B3" />
<rect x="140" y="85" width="5" height="5" fill="#FBD7B3" />
<rect x="0" y="90" width="5" height="5" fill="#3F0042" />
<rect x="5" y="90" width="5" height="5" fill="#C562B6" />
<rect x="10" y="90" width="5" height="5" fill="#C562B6" />
<rect x="15" y="90" width="5" height="5" fill="#FDE2C4" />
<rect x="20" y="90" width="5" height="5" fill="#FDE2C4" />
<rect x="25" y="90" width="5" height="5" fill="#FDE2C4" />
<rect x="30" y="90" width="5" height="5" fill="#FDE2C4" />
<rect x="35" y="90" width="5" height="5" fill="#FDE2C4" />
<rect x="40" y="90" width="5" height="5" fill="#FDE2C4" />
<rect x="45" y="90" width="5" height="5" fill="#FDE2C4" />
<rect x="50" y="90" width="5" height="5" fill="#FDE2C4" />
<rect x="55" y="90" width="5" height="5" fill="#FDE2C4" />
<rect x="60" y="90" width="5" height="5" fill="#FDE2C4" />
<rect x="65" y="90" width="5" height="5" fill="#FDE2C4" />
<rect x="70" y="90" width="5" height="5" fill="#FDE2C4" />
<rect x="75" y="90" width="5" height="5" fill="#FDE2C4" />
<rect x="80" y="90" width="5" height="5" fill="#FDE2C4" />
<rect x="85" y="90" width="5" height="5" fill="#FDE2C4" />
<rect x="90" y="90" width="5" height="5" fill="#FDE2C4" />
<rect x="95" y="90" width="5" height="5" fill="#FBD7B3" />
<rect x="100" y="90" width="5" height="5" fill="#FBD7B3" />
<rect x="105" y="90" width="5" height="5" fill="#FBD7B3" />
<rect x="110" y="90" width="5" height="5" fill="#FBD7B3" />
<rect x="115" y="90" width="5" height="5" fill="#FBD7B3" />
<rect x="120" y="90" width="5" height="5" fill="#FBD7B3" />
<rect x="125" y="90" width="5" height="5" fill="#FBD7B3" />
<rect x="130" y="90" width="5" height="5" fill="#FBD7B3" />
<rect x="135" y="90" width="5" height="5" fill="#FBD7B3" />
<rect x="0" y="95" width="5" height="5" fill="#3F0042" />
<rect x="5" y="95" width="5" height="5" fill="#3F0042" />
<rect x="10" y="95" width="5" height="5" fill="#C562B6" />
<rect x="15" y="95" width="5" height="5" fill="#C562B6" />
<rect x="20" y="95" width="5" height="5" fill="#FAC5A6" />
<rect x="25" y="95" width="5" height="5" fill="#FAC5A6" />
<rect x="30" y="95" width="5" height="5" fill="#FDE2C4" />
<rect x="35" y="95" width="5" height="5" fill="#FDE2C4" />
<rect x="40" y="95" width="5" height="5" fill="#FDE2C4" />
<rect x="45" y="95" width="5" height="5" fill="#FDE2C4" />
<rect x="50" y="95" width="5" height="5" fill="#FDE2C4" />
<rect x="55" y="95" width="5" height="5" fill="#FDE2C4" />
<rect x="60" y="95" width="5" height="5" fill="#FDE2C4" />
<rect x="65" y="95" width="5" height="5" fill="#FDE2C4" />
<rect x="70" y="95" width="5" height="5" fill="#FDE2C4" />
<rect x="75" y="95" width="5" height="5" fill="#FDE2C4" />
<rect x="80" y="95" width="5" height="5" fill="#FDE2C4" />
<rect x="85" y="95" width="5" height="5" fill="#FDE2C4" />
<rect x="90" y="95" width="5" height="5" fill="#FDE2C4" />
<rect x="95" y="95" width="5" height="5" fill="#FDE2C4" />
<rect x="100" y="95" width="5" height="5" fill="#FDE2C4" />
<rect x="105" y="95" width="5" height="5" fill="#FDE2C4" />
<rect x="110" y="95" width="5" height="5" fill="#FDE2C4" />
<rect x="115" y="95" width="5" height="5" fill="#FDE2C4" />
<rect x="120" y="95" width="5" height="5" fill="#FDE2C4" />
<rect x="125" y="95" width="5" height="5" fill="#FDE2C4" />
<rect x="130" y="95" width="5" height="5" fill="#FAC5A6" />
<rect x="5" y="100" width="5" height="5" fill="#3F0042" />
<rect x="10" y="100" width="5" height="5" fill="#3F0042" />
<rect x="15" y="100" width="5" height="5" fill="#C562B6" />
<rect x="20" y="100" width="5" height="5" fill="#C562B6" />
<rect x="25" y="100" width="5" height="5" fill="#C562B6" />
<rect x="30" y="100" width="5" height="5" fill="#FAC5A6" />
<rect x="35" y="100" width="5" height="5" fill="#FDE2C4" />
<rect x="40" y="100" width="5" height="5" fill="#FDE2C4" />
<rect x="45" y="100" width="5" height="5" fill="#FDE2C4" />
<rect x="50" y="100" width="5" height="5" fill="#FDE2C4" />
<rect x="55" y="100" width="5" height="5" fill="#FDE2C4" />
<rect x="60" y="100" width="5" height="5" fill="#FDE2C4" />
<rect x="65" y="100" width="5" height="5" fill="#FDE2C4" />
<rect x="70" y="100" width="5" height="5" fill="#FDE2C4" />
<rect x="75" y="100" width="5" height="5" fill="#FDE2C4" />
<rect x="80" y="100" width="5" height="5" fill="#FDE2C4" />
<rect x="85" y="100" width="5" height="5" fill="#FDE2C4" />
<rect x="90" y="100" width="5" height="5" fill="#FDE2C4" />
<rect x="95" y="100" width="5" height="5" fill="#FDE2C4" />
<rect x="100" y="100" width="5" height="5" fill="#FDE2C4" />
<rect x="105" y="100" width="5" height="5" fill="#FDE2C4" />
<rect x="110" y="100" width="5" height="5" fill="#FDE2C4" />
<rect x="115" y="100" width="5" height="5" fill="#FDE2C4" />
<rect x="120" y="100" width="5" height="5" fill="#E9BB98" />
<rect x="125" y="100" width="5" height="5" fill="#E9BB98" />
<rect x="130" y="100" width="5" height="5" fill="#E9BB98" />
<rect x="135" y="100" width="5" height="5" fill="#E9BB98" />
<rect x="15" y="105" width="5" height="5" fill="#3F0042" />
<rect x="20" y="105" width="5" height="5" fill="#3F0042" />
<rect x="25" y="105" width="5" height="5" fill="#C562B6" />
<rect x="30" y="105" width="5" height="5" fill="#C562B6" />
<rect x="35" y="105" width="5" height="5" fill="#FAC5A6" />
<rect x="40" y="105" width="5" height="5" fill="#FAC5A6" />
<rect x="45" y="105" width="5" height="5" fill="#FDE2C4" />
<rect x="50" y="105" width="5" height="5" fill="#FDE2C4" />
<rect x="55" y="105" width="5" height="5" fill="#FDE2C4" />
<rect x="60" y="105" width="5" height="5" fill="#FDE2C4" />
<rect x="65" y="105" width="5" height="5" fill="#FDE2C4" />
<rect x="70" y="105" width="5" height="5" fill="#FDE2C4" />
<rect x="75" y="105" width="5" height="5" fill="#FDE2C4" />
<rect x="80" y="105" width="5" height="5" fill="#FDE2C4" />
<rect x="85" y="105" width="5" height="5" fill="#FDE2C4" />
<rect x="90" y="105" width="5" height="5" fill="#FDE2C4" />
<rect x="95" y="105" width="5" height="5" fill="#FDE2C4" />
<rect x="100" y="105" width="5" height="5" fill="#E9BB98" />
<rect x="105" y="105" width="5" height="5" fill="#E9BB98" />
<rect x="110" y="105" width="5" height="5" fill="#FDE2C4" />
<rect x="115" y="105" width="5" height="5" fill="#FAC5A6" />
<rect x="120" y="105" width="5" height="5" fill="#E9BB98" />
<rect x="125" y="105" width="5" height="5" fill="#E9BB98" />
<rect x="130" y="105" width="5" height="5" fill="#E9BB98" />
<rect x="135" y="105" width="5" height="5" fill="#E9BB98" />
<rect x="140" y="105" width="5" height="5" fill="#E9BB98" />
<rect x="145" y="105" width="5" height="5" fill="#E9BB98" />
<rect x="20" y="110" width="5" height="5" fill="#3F0042" />
<rect x="25" y="110" width="5" height="5" fill="#3F0042" />
<rect x="30" y="110" width="5" height="5" fill="#C562B6" />
<rect x="35" y="110" width="5" height="5" fill="#C562B6" />
<rect x="40" y="110" width="5" height="5" fill="#C562B6" />
<rect x="45" y="110" width="5" height="5" fill="#FAC5A6" />
<rect x="50" y="110" width="5" height="5" fill="#E9BB98" />
<rect x="55" y="110" width="5" height="5" fill="#E9BB98" />
<rect x="60" y="110" width="5" height="5" fill="#E9BB98" />
<rect x="65" y="110" width="5" height="5" fill="#FDE2C4" />
<rect x="70" y="110" width="5" height="5" fill="#FDE2C4" />
<rect x="75" y="110" width="5" height="5" fill="#FDE2C4" />
<rect x="80" y="110" width="5" height="5" fill="#FDE2C4" />
<rect x="85" y="110" width="5" height="5" fill="#FDE2C4" />
<rect x="90" y="110" width="5" height="5" fill="#FDE2C4" />
<rect x="95" y="110" width="5" height="5" fill="#E9BB98" />
<rect x="100" y="110" width="5" height="5" fill="#E9BB98" />
<rect x="105" y="110" width="5" height="5" fill="#E9BB98" />
<rect x="110" y="110" width="5" height="5" fill="#E9BB98" />
<rect x="135" y="110" width="5" height="5" fill="#E9BB98" />
<rect x="140" y="110" width="5" height="5" fill="#E9BB98" />
<rect x="145" y="110" width="5" height="5" fill="#E9BB98" />
<rect x="150" y="110" width="5" height="5" fill="#E9BB98" />
<rect x="20" y="115" width="5" height="5" fill="#E9BB98" />
<rect x="25" y="115" width="5" height="5" fill="#E9BB98" />
<rect x="30" y="115" width="5" height="5" fill="#3F0042" />
<rect x="35" y="115" width="5" height="5" fill="#3F0042" />
<rect x="40" y="115" width="5" height="5" fill="#3F0042" />
<rect x="45" y="115" width="5" height="5" fill="#E9BB98" />
<rect x="50" y="115" width="5" height="5" fill="#E9BB98" />
<rect x="55" y="115" width="5" height="5" fill="#E9BB98" />
<rect x="60" y="115" width="5" height="5" fill="#E9BB98" />
<rect x="65" y="115" width="5" height="5" fill="#C562B6" />
<rect x="70" y="115" width="5" height="5" fill="#C562B6" />
<rect x="75" y="115" width="5" height="5" fill="#C562B6" />
<rect x="80" y="115" width="5" height="5" fill="#3F0042" />
<rect x="85" y="115" width="5" height="5" fill="#3F0042" />
<rect x="90" y="115" width="5" height="5" fill="#FAC5A6" />
<rect x="95" y="115" width="5" height="5" fill="#E9BB98" />
<rect x="100" y="115" width="5" height="5" fill="#E9BB98" />
<rect x="105" y="115" width="5" height="5" fill="#E9BB98" />
<rect x="110" y="115" width="5" height="5" fill="#E9BB98" />
<rect x="115" y="115" width="5" height="5" fill="#E9BB98" />
<rect x="140" y="115" width="5" height="5" fill="#E9BB98" />
<rect x="15" y="120" width="5" height="5" fill="#E9BB98" />
<rect x="20" y="120" width="5" height="5" fill="#E9BB98" />
<rect x="25" y="120" width="5" height="5" fill="#E9BB98" />
<rect x="30" y="120" width="5" height="5" fill="#E9BB98" />
<rect x="40" y="120" width="5" height="5" fill="#E9BB98" />
<rect x="45" y="120" width="5" height="5" fill="#E9BB98" />
<rect x="50" y="120" width="5" height="5" fill="#E9BB98" />
<rect x="55" y="120" width="5" height="5" fill="#E9BB98" />
<rect x="60" y="120" width="5" height="5" fill="#3F0042" />
<rect x="65" y="120" width="5" height="5" fill="#3F0042" />
<rect x="70" y="120" width="5" height="5" fill="#3F0042" />
<rect x="75" y="120" width="5" height="5" fill="#3F0042" />
<rect x="105" y="120" width="5" height="5" fill="#E9BB98" />
<rect x="110" y="120" width="5" height="5" fill="#E9BB98" />
<rect x="115" y="120" width="5" height="5" fill="#E9BB98" />
<rect x="120" y="120" width="5" height="5" fill="#E9BB98" />
<rect x="15" y="125" width="5" height="5" fill="#E9BB98" />
<rect x="20" y="125" width="5" height="5" fill="#E9BB98" />
<rect x="25" y="125" width="5" height="5" fill="#E9BB98" />
<rect x="35" y="125" width="5" height="5" fill="#E9BB98" />
<rect x="40" y="125" width="5" height="5" fill="#E9BB98" />
<rect x="45" y="125" width="5" height="5" fill="#E9BB98" />
<rect x="50" y="125" width="5" height="5" fill="#E9BB98" />
<rect x="110" y="125" width="5" height="5" fill="#E9BB98" />
<rect x="115" y="125" width="5" height="5" fill="#E9BB98" />
<rect x="120" y="125" width="5" height="5" fill="#E9BB98" />
<rect x="125" y="125" width="5" height="5" fill="#E9BB98" />
<rect x="35" y="130" width="5" height="5" fill="#E9BB98" />
<rect x="40" y="130" width="5" height="5" fill="#E9BB98" />
<rect x="45" y="130" width="5" height="5" fill="#E9BB98" />
<rect x="115" y="130" width="5" height="5" fill="#E9BB98" />
</svg>